<svg width="133" height="133" viewBox="0 0 133 133" fill="none" xmlns="http://www.w3.org/2000/svg">
<path fill-rule="evenodd" clip-rule="evenodd" d="M66.5 133C103.227 133 133 103.227 133 66.5C133 29.7731 103.227 0 66.5 0C29.7731 0 0 29.7731 0 66.5C0 66.6669 0.000610352 66.8335 0.00183105 67H12.0022C12.0007 66.8335 12 66.6669 12 66.5C12 36.4005 36.4005 12 66.5 12C96.5995 12 121 36.4005 121 66.5C121 96.5995 96.5995 121 66.5 121C66.3331 121 66.1665 120.999 66 120.998V132.998C66.1665 132.999 66.3331 133 66.5 133Z" fill="white"/>
</svg>
